<?xml version="1.0" encoding="UTF-8" standalone="no"?>
<!DOCTYPE svg PUBLIC "-//W3C//DTD SVG 1.1//EN" "http://www.w3.org/Graphics/SVG/1.1/DTD/svg11.dtd">
<svg width="100%" height="100%" viewBox="0 0 100 100" version="1.1" xmlns="http://www.w3.org/2000/svg" xmlns:xlink="http://www.w3.org/1999/xlink" xml:space="preserve" xmlns:serif="http://www.serif.com/" style="fill-rule:evenodd;clip-rule:evenodd;stroke-linecap:round;stroke-linejoin:round;stroke-miterlimit:1.5;">
    <g transform="matrix(24,0,0,2,-46,44)">
        <ellipse cx="4" cy="3" rx="2" ry="24" style="stroke:black;stroke-width:0.1px;"/>
    </g>
    <g id="Layer1">
        <g transform="matrix(0.894737,0,0,0.894737,5.26316,-0.894737)">
            <circle cx="50" cy="39" r="19" style="fill:white;"/>
        </g>
        <g transform="matrix(1.5,0,0,0.604903,-25,21.8796)">
            <path d="M76.371,77.692C76.315,79.231 75.664,80.335 75.136,82.308C61.979,131.484 38.154,131.745 24.871,82.308C24.341,80.336 23.367,77.752 23.333,76.154C23.307,74.925 23.854,74.785 24.667,72.716C26.69,67.569 30.527,58.091 32.667,54.615C35.556,49.924 37.797,48.132 40,50C44.47,53.79 55.362,53.842 60,50C62.224,48.158 64.444,49.924 67.333,54.615C69.524,58.174 73.494,68.024 75.475,73.077C76.206,74.942 76.428,76.154 76.371,77.692Z" style="fill:white;"/>
        </g>
    </g>
</svg>
