<?xml version="1.0" encoding="UTF-8" standalone="no"?>
<!DOCTYPE svg PUBLIC "-//W3C//DTD SVG 1.1//EN" "http://www.w3.org/Graphics/SVG/1.1/DTD/svg11.dtd">
<svg width="100%" height="100%" viewBox="0 0 64 64" version="1.1" xmlns="http://www.w3.org/2000/svg" xmlns:xlink="http://www.w3.org/1999/xlink" xml:space="preserve" xmlns:serif="http://www.serif.com/" style="fill-rule:evenodd;clip-rule:evenodd;stroke-linecap:round;stroke-linejoin:round;stroke-miterlimit:1.5;">
    <g id="DMs">
        <g transform="matrix(1,0,0,1,-64.9588,1)">
            <path d="M107,10C107,5.585 103.415,2 99,2L75,2C70.585,2 67,5.585 67,10L67,26C67,28.587 68.231,30.889 70.138,32.352C70.391,32.546 66.656,37.725 66.932,37.889C68.124,38.595 73.515,34 75,34L99,34C103.415,34 107,30.415 107,26L107,10Z" style="fill:rgb(120,210,197);stroke:rgb(120,210,197);stroke-width:1px;"/>
        </g>
        <g transform="matrix(1,0,0,1,-44.9588,23)">
            <path d="M107,10C107,5.585 103.415,2 99,2L75,2C70.585,2 67,5.585 67,10L67,26C67,30.415 70.585,34 75,34L93.671,34L100.717,38C100.717,38 99.718,35.673 99.244,34.568C99.189,34.44 99.2,34.293 99.274,34.174C99.347,34.055 99.475,33.98 99.614,33.972C103.743,33.663 107,30.209 107,26L107,10Z" style="fill:rgb(160,169,229);stroke:rgb(160,169,229);stroke-width:1px;"/>
        </g>
        <g transform="matrix(1,0,0,1,-63.9588,0)">
            <circle cx="74.5" cy="18.5" r="2.5" style="fill:white;"/>
        </g>
        <g transform="matrix(1,0,0,1,-51.9588,0)">
            <circle cx="74.5" cy="18.5" r="2.5" style="fill:white;"/>
        </g>
        <g transform="matrix(1,0,0,1,-39.9588,0)">
            <circle cx="74.5" cy="18.5" r="2.5" style="fill:white;"/>
        </g>
        <g transform="matrix(1,0,0,1,-44.9588,22)">
            <circle cx="74.5" cy="18.5" r="2.5" style="fill:white;"/>
        </g>
        <g transform="matrix(1,0,0,1,-32.9588,22)">
            <circle cx="74.5" cy="18.5" r="2.5" style="fill:white;"/>
        </g>
        <g transform="matrix(1,0,0,1,-20.9588,22)">
            <circle cx="74.5" cy="18.5" r="2.5" style="fill:white;"/>
        </g>
    </g>
</svg>
